<svg width="172" height="28" viewBox="0 0 172 28" fill="none" xmlns="http://www.w3.org/2000/svg">
<path d="M169.34 27.4715C169.601 27.5599 169.885 27.4196 169.974 27.158L171.415 22.8953C171.504 22.6337 171.364 22.3499 171.102 22.2614C170.84 22.173 170.557 22.3133 170.468 22.5749L169.187 26.364L165.397 25.0823C165.136 24.9938 164.852 25.1341 164.764 25.3957C164.675 25.6573 164.815 25.9411 165.077 26.0296L169.34 27.4715ZM0.500126 9.99689C0.13395 10.3374 0.134323 10.3378 0.134798 10.3383C0.135091 10.3386 0.135668 10.3392 0.136254 10.3398C0.137425 10.3411 0.139004 10.3428 0.140992 10.3449C0.144964 10.3491 0.150565 10.355 0.1578 10.3626C0.17226 10.3778 0.19325 10.3995 0.220787 10.4277C0.275864 10.4839 0.357152 10.5654 0.464863 10.6695C0.680279 10.8777 1.00143 11.1766 1.43003 11.545C2.28722 12.2819 3.57445 13.2975 5.30553 14.4239C8.76804 16.677 14.0058 19.3732 21.1278 21.1695C35.3811 24.7645 57.125 24.7414 87.2145 10.4484L86.7854 9.54512C56.8749 23.7532 35.3689 23.7301 21.3723 20.1999C14.3693 18.4336 9.23215 15.7859 5.85093 13.5857C4.16015 12.4855 2.90833 11.4971 2.08193 10.7867C1.66874 10.4315 1.36196 10.1459 1.1599 9.95052C1.05887 9.85286 0.98403 9.77779 0.935162 9.7279C0.910733 9.70296 0.892795 9.68431 0.881325 9.67229C0.875591 9.66628 0.871474 9.66193 0.86897 9.65927C0.86772 9.65794 0.866872 9.65704 0.866425 9.65656C0.866205 9.65632 0.866172 9.65629 0.866061 9.65617C0.866129 9.65625 0.866302 9.65643 0.500126 9.99689ZM87.2145 10.4484C117.079 -3.73797 137.527 0.519863 150.494 8.23903C156.993 12.1074 161.637 16.8593 164.656 20.6452C166.165 22.5376 167.267 24.1869 167.99 25.3606C168.352 25.9474 168.619 26.4151 168.794 26.7347C168.882 26.8945 168.947 27.0172 168.99 27.0992C169.012 27.1402 169.027 27.171 169.038 27.1912C169.043 27.2013 169.046 27.2088 169.049 27.2135C169.05 27.2158 169.051 27.2175 169.051 27.2185C169.052 27.219 169.052 27.2192 169.052 27.2195C169.052 27.2196 169.052 27.2194 169.5 26.9978C169.948 26.7762 169.948 26.7757 169.948 26.7751C169.947 26.7747 169.947 26.7739 169.947 26.773C169.946 26.7712 169.944 26.7688 169.943 26.7656C169.94 26.7593 169.935 26.7503 169.929 26.7387C169.917 26.7154 169.9 26.6813 169.877 26.6371C169.831 26.5487 169.762 26.4194 169.671 26.2528C169.488 25.9198 169.212 25.4377 168.842 24.836C168.1 23.6327 166.975 21.9497 165.438 20.0217C162.363 16.1666 157.632 11.3243 151.006 7.37975C137.723 -0.526878 116.92 -4.76958 86.7854 9.54512L87.2145 10.4484Z" fill="black"/>
</svg>
