<svg width="215" height="70" viewBox="0 0 215 70" fill="none" xmlns="http://www.w3.org/2000/svg">
<path d="M108.326 35.3251L108.018 35.7186L108.326 35.3251ZM2.34935 68.9752C2.43226 69.2386 2.71299 69.3849 2.9764 69.302L7.26882 67.951C7.53222 67.8681 7.67855 67.5874 7.59564 67.324C7.51274 67.0606 7.23201 66.9143 6.96859 66.9972L3.15311 68.198L1.95225 64.3825C1.86935 64.1191 1.5886 63.9728 1.3252 64.0557C1.0618 64.1386 0.915475 64.4194 0.998379 64.6828L2.34935 68.9752ZM214.324 1.87558C214.338 1.73984 214.342 1.60136 214.325 1.47422C214.31 1.3636 214.266 1.16158 214.092 1.01392C213.883 0.836098 213.64 0.857128 213.491 0.904582C213.354 0.948474 213.235 1.02975 213.144 1.10138C212.791 1.38119 212.29 1.99462 211.678 2.80127C211.052 3.62833 210.263 4.72169 209.326 6.01417C208.388 7.30902 207.295 8.80953 206.055 10.4595C201.092 17.0615 193.768 26.0431 184.483 33.729C175.196 41.4163 163.979 47.7821 151.23 49.202C138.498 50.62 124.172 47.1124 108.635 34.9316L108.018 35.7186C123.731 48.0374 138.313 51.6468 151.341 50.1958C164.353 48.7466 175.749 42.2572 185.12 34.4994C194.494 26.7402 201.873 17.6869 206.854 11.0604C208.1 9.40324 209.196 7.89704 210.136 6.60113C211.077 5.30287 211.857 4.22146 212.475 3.40528C213.109 2.5687 213.531 2.07044 213.765 1.88566C213.821 1.84114 213.828 1.84672 213.795 1.85715C213.752 1.87115 213.592 1.90098 213.445 1.77601C213.333 1.6812 213.33 1.57609 213.334 1.60824C213.336 1.62387 213.339 1.67402 213.329 1.77458L214.324 1.87558ZM108.635 34.9316C92.9293 22.6187 78.4045 18.5358 65.442 19.389C52.4904 20.2414 41.1626 26.0171 31.8311 33.3063C22.4995 40.5955 15.1397 49.4171 10.1156 56.4084C7.60246 59.9056 5.67116 62.9485 4.36744 65.1184C3.71552 66.2034 3.22038 67.0704 2.88775 67.6671C2.72142 67.9654 2.59572 68.1962 2.51133 68.3528C2.46914 68.4311 2.43729 68.491 2.41586 68.5314C2.40514 68.5516 2.39703 68.567 2.39153 68.5775C2.38879 68.5827 2.38669 68.5867 2.38524 68.5895C2.38453 68.5909 2.38394 68.592 2.38358 68.5927C2.38317 68.5935 2.38291 68.594 2.82629 68.8251C3.26967 69.0562 3.26974 69.056 3.26998 69.0556C3.27027 69.055 3.27067 69.0543 3.27127 69.0531C3.27244 69.0509 3.27429 69.0474 3.27677 69.0426C3.28175 69.0332 3.28934 69.0188 3.29953 68.9995C3.31991 68.9611 3.35068 68.9033 3.39175 68.827C3.47392 68.6745 3.5973 68.448 3.76117 68.154C4.08894 67.5661 4.57867 66.7085 5.22462 65.6334C6.5166 63.483 8.43296 60.4635 10.9276 56.992C15.9192 50.0459 23.2156 41.3051 32.4466 34.0944C41.6777 26.8837 52.8186 21.222 65.5076 20.3868C78.1858 19.5524 92.4734 23.5319 108.018 35.7186L108.635 34.9316Z" fill="black"/>
</svg>
