<svg width="86" height="21" viewBox="0 0 86 21" fill="none" xmlns="http://www.w3.org/2000/svg">
<path d="M43.1572 7.03903L43.283 6.5551L43.1572 7.03903ZM2.30571 20.6671C2.03341 20.713 1.77545 20.5295 1.72955 20.2572L0.981511 15.8198C0.935611 15.5475 1.11914 15.2896 1.39144 15.2437C1.66374 15.1978 1.9217 15.3813 1.9676 15.6536L2.63252 19.5979L6.57687 18.933C6.84917 18.8871 7.10712 19.0706 7.15302 19.3429C7.19893 19.6152 7.0154 19.8732 6.7431 19.9191L2.30571 20.6671ZM84.7198 0.4558C85.0557 0.826225 85.0554 0.826464 85.0551 0.826755C85.0549 0.826921 85.0545 0.827263 85.0542 0.827593C85.0534 0.828254 85.0525 0.829121 85.0513 0.830189C85.0489 0.832325 85.0456 0.835271 85.0414 0.83901C85.033 0.846489 85.021 0.857142 85.0053 0.870837C84.974 0.898231 84.9281 0.9378 84.8678 0.988508C84.7472 1.08992 84.5689 1.2359 84.3336 1.41812C83.863 1.78254 83.1645 2.29205 82.244 2.87999C80.4031 4.05577 77.6733 5.54602 74.1038 6.81627C66.9601 9.35848 56.4671 11.0141 43.0315 7.52296L43.283 6.5551C56.5078 9.99144 66.7961 8.35542 73.7686 5.87415C77.2572 4.63266 79.9193 3.17821 81.7057 2.03722C82.5988 1.46677 83.2727 0.974884 83.7213 0.627496C83.9456 0.453813 84.1134 0.316289 84.2242 0.223173C84.2795 0.176617 84.3206 0.141166 84.3473 0.117855C84.3606 0.1062 84.3703 0.0975793 84.3765 0.0921221C84.3795 0.0893943 84.3817 0.0874579 84.3829 0.0863278C84.3836 0.0857627 84.384 0.0853992 84.3842 0.0852412C84.3842 0.0851604 84.3842 0.0851947 84.3843 0.0851542C84.3842 0.0852405 84.384 0.0853759 84.7198 0.4558ZM43.0315 7.52296C29.8534 4.09876 19.757 7.34412 12.9499 11.4373C9.54226 13.4863 6.95703 15.7495 5.22484 17.4993C4.35904 18.3739 3.70728 19.1193 3.27335 19.6442C3.05642 19.9065 2.89401 20.1137 2.78661 20.2542C2.73291 20.3244 2.69297 20.378 2.66685 20.4134C2.65378 20.4311 2.64418 20.4443 2.63803 20.4528C2.63496 20.457 2.63276 20.4601 2.63141 20.462C2.63075 20.4629 2.63029 20.4635 2.63005 20.4639C2.62994 20.464 2.62992 20.4641 2.62986 20.4641C2.62991 20.4641 2.63 20.464 2.22259 20.1741C1.81519 19.8842 1.81539 19.8839 1.81564 19.8836C1.8158 19.8834 1.81611 19.8829 1.81643 19.8825C1.81707 19.8816 1.81792 19.8804 1.81899 19.8789C1.82113 19.8759 1.82416 19.8717 1.82805 19.8664C1.83582 19.8556 1.8471 19.8401 1.86186 19.8201C1.89138 19.7801 1.93485 19.7218 1.99221 19.6468C2.10691 19.4967 2.27722 19.2796 2.50266 19.007C2.9535 18.4617 3.62519 17.6938 4.51416 16.7958C6.29153 15.0004 8.94113 12.6809 12.4346 10.5803C19.4297 6.37402 29.8006 3.05185 43.283 6.5551L43.0315 7.52296Z" fill="black"/>
</svg>
